<mxfile host="app.diagrams.net" modified="2024-02-17T20:05:14.170Z" agent="Mozilla/5.0 (Windows NT 10.0; Win64; x64) AppleWebKit/537.36 (KHTML, like Gecko) Chrome/121.0.0.0 Safari/537.36" etag="y79w-V26_sLKn_CP5QfC" version="23.1.5" type="device">
  <diagram name="Page-1" id="ju2q98K07fo_KAztze-d">
    <mxGraphModel dx="1050" dy="557" grid="1" gridSize="10" guides="1" tooltips="1" connect="1" arrows="1" fold="1" page="1" pageScale="1" pageWidth="827" pageHeight="1169" math="0" shadow="0">
      <root>
        <mxCell id="0" />
        <mxCell id="1" parent="0" />
        <mxCell id="5DmRWnSpw2I4XNaidMth-1" value="" style="ellipse;whiteSpace=wrap;html=1;aspect=fixed;" vertex="1" parent="1">
          <mxGeometry x="364" y="330" width="100" height="100" as="geometry" />
        </mxCell>
        <mxCell id="5DmRWnSpw2I4XNaidMth-2" value="" style="rounded=0;whiteSpace=wrap;html=1;" vertex="1" parent="1">
          <mxGeometry x="70" y="350" width="120" height="60" as="geometry" />
        </mxCell>
        <mxCell id="5DmRWnSpw2I4XNaidMth-3" value="" style="rounded=0;whiteSpace=wrap;html=1;" vertex="1" parent="1">
          <mxGeometry x="640" y="350" width="120" height="60" as="geometry" />
        </mxCell>
        <mxCell id="5DmRWnSpw2I4XNaidMth-8" value="" style="endArrow=classic;html=1;rounded=0;exitX=0.993;exitY=0.143;exitDx=0;exitDy=0;exitPerimeter=0;" edge="1" parent="1">
          <mxGeometry relative="1" as="geometry">
            <mxPoint x="190.00000000000009" y="358.58000000000004" as="sourcePoint" />
            <mxPoint x="364.84" y="360" as="targetPoint" />
          </mxGeometry>
        </mxCell>
        <mxCell id="5DmRWnSpw2I4XNaidMth-13" value="" style="endArrow=classic;html=1;rounded=0;exitX=0.948;exitY=0.294;exitDx=0;exitDy=0;exitPerimeter=0;" edge="1" parent="1" source="5DmRWnSpw2I4XNaidMth-1">
          <mxGeometry relative="1" as="geometry">
            <mxPoint x="464" y="360" as="sourcePoint" />
            <mxPoint x="638.8399999999999" y="361.41999999999996" as="targetPoint" />
          </mxGeometry>
        </mxCell>
        <mxCell id="5DmRWnSpw2I4XNaidMth-14" value="" style="endArrow=classic;html=1;rounded=0;exitX=0.948;exitY=0.294;exitDx=0;exitDy=0;exitPerimeter=0;" edge="1" parent="1">
          <mxGeometry relative="1" as="geometry">
            <mxPoint x="640" y="400" as="sourcePoint" />
            <mxPoint x="460" y="400" as="targetPoint" />
          </mxGeometry>
        </mxCell>
        <mxCell id="5DmRWnSpw2I4XNaidMth-15" value="" style="endArrow=classic;html=1;rounded=0;exitX=0.036;exitY=0.71;exitDx=0;exitDy=0;exitPerimeter=0;" edge="1" parent="1" source="5DmRWnSpw2I4XNaidMth-1">
          <mxGeometry relative="1" as="geometry">
            <mxPoint x="364" y="400" as="sourcePoint" />
            <mxPoint x="190" y="400" as="targetPoint" />
          </mxGeometry>
        </mxCell>
        <mxCell id="5DmRWnSpw2I4XNaidMth-16" value="&lt;font style=&quot;font-size: 14px;&quot;&gt;Admin&lt;/font&gt;" style="text;html=1;align=center;verticalAlign=middle;whiteSpace=wrap;rounded=0;" vertex="1" parent="1">
          <mxGeometry x="670" y="365" width="60" height="30" as="geometry" />
        </mxCell>
        <mxCell id="5DmRWnSpw2I4XNaidMth-17" value="&lt;font style=&quot;font-size: 14px;&quot;&gt;User&lt;/font&gt;" style="text;html=1;align=center;verticalAlign=middle;whiteSpace=wrap;rounded=0;" vertex="1" parent="1">
          <mxGeometry x="100" y="365" width="60" height="30" as="geometry" />
        </mxCell>
        <mxCell id="5DmRWnSpw2I4XNaidMth-18" value="&lt;font style=&quot;font-size: 14px;&quot;&gt;Diamond Dops Selling&lt;/font&gt;" style="text;html=1;align=center;verticalAlign=middle;whiteSpace=wrap;rounded=0;" vertex="1" parent="1">
          <mxGeometry x="384" y="370" width="60" height="30" as="geometry" />
        </mxCell>
        <mxCell id="5DmRWnSpw2I4XNaidMth-19" value="Input Data" style="text;html=1;align=center;verticalAlign=middle;whiteSpace=wrap;rounded=0;" vertex="1" parent="1">
          <mxGeometry x="250" y="330" width="60" height="30" as="geometry" />
        </mxCell>
        <mxCell id="5DmRWnSpw2I4XNaidMth-20" value="Fetch Admin" style="text;html=1;align=center;verticalAlign=middle;whiteSpace=wrap;rounded=0;" vertex="1" parent="1">
          <mxGeometry x="510" y="335" width="70" height="30" as="geometry" />
        </mxCell>
        <mxCell id="5DmRWnSpw2I4XNaidMth-21" value="Output Data" style="text;html=1;align=center;verticalAlign=middle;whiteSpace=wrap;rounded=0;" vertex="1" parent="1">
          <mxGeometry x="245" y="400" width="70" height="30" as="geometry" />
        </mxCell>
        <mxCell id="5DmRWnSpw2I4XNaidMth-22" value="Response" style="text;html=1;align=center;verticalAlign=middle;whiteSpace=wrap;rounded=0;" vertex="1" parent="1">
          <mxGeometry x="510" y="400" width="60" height="30" as="geometry" />
        </mxCell>
      </root>
    </mxGraphModel>
  </diagram>
</mxfile>
